<svg height="178pt" preserveAspectRatio="xMidYMid meet" viewBox="0 0 178 178" width="178pt" xmlns="http://www.w3.org/2000/svg"><path d="m246 1203c-2-2-30-6-62-9-33-3-70-8-84-11s-29-7-35-7c-36-3-49-25-53-89-4-63-3-65 26-82 28-17 30-23 35-94 3-42 8-83 10-91s7-32 12-52c4-21 11-38 16-38s9-9 9-19c0-42 101-122 186-149 47-15 192-7 249 13 56 19 122 62 161 103 22 23 77 108 80 122 2 15 42 108 55 130 5 8 13 25 19 37 10 24 40 22 40-2 0-7 7-18 15-25s15-18 15-25 10-34 22-61 23-54 24-59c4-23 66-104 106-140 81-71 148-95 274-100 129-5 223 36 281 120 12 18 19 35 16 39-4 3-2 6 4 6s14 12 18 28c4 15 9 36 12 47s8 58 12 103c6 76 9 86 34 104 24 18 27 26 27 81 0 73-9 91-47 93-15 1-28 3-28 4s-31 8-70 15c-109 19-432 12-509-12-41-12-95-16-221-17-116-1-156 2-245 18-86 15-140 19-263 21-75 1-139 0-141-2z" transform="matrix(.1 0 0 -.1 0 178)"/></svg>